<?xml version="1.0" encoding="UTF-8"?><svg id="title" xmlns="http://www.w3.org/2000/svg" width="367.97" height="30.69" viewBox="0 0 367.97 30.69"><defs><style>.cls-1{fill:#fff;fill-rule:evenodd;stroke-width:0px;}</style></defs><path id="_流入ワード推移チェック_のコピー" class="cls-1" d="M31.23,13.82c-1.46-2.72-3.28-5.22-5.41-7.45h5.03V2.17h-8.71V.13h-4.83v2.05h-8.45v4.19h5.09c-.37,1.22-.8,2.42-1.31,3.58-.51,0-3.3.03-3.62.03l.61,4.51c1.22-.06,11.33-.48,16.06-1.15.68,1.15,1.06,1.86,1.41,2.53l4.13-2.05ZM21.85,8.06c.8.96.96,1.15,1.28,1.57-.8.03-4.76.22-5.66.26.67-1.41,1.12-2.56,1.5-3.52h6.6l-3.72,1.7ZM.9,4.06c1.84.9,3.56,2.03,5.12,3.36l2.65-3.97C7.15,2.15,5.42,1.13,3.55.41L.9,4.06ZM22.33,15.42v12.8c0,1.19.97,2.15,2.15,2.14,0,0,.02,0,.03,0h3.68c1.17.18,2.27-.6,2.5-1.76.33-1.89.51-3.81.54-5.73l-3.2-1.02c0,1.54-.06,3.26-.1,3.52-.09.45-.12.45-.92.45-.39,0-.39-.35-.39-.61v-9.79h-4.29ZM0,12.25c1.84.95,3.57,2.11,5.15,3.46l2.79-3.81c-1.57-1.35-3.33-2.47-5.22-3.33l-2.72,3.68ZM4.86,16.99C3.68,20.46,2.06,23.76.03,26.81l3.62,3.65c2.08-3.45,3.77-7.12,5.02-10.94l-3.81-2.53ZM16.67,15.74v13.92h4.06v-13.92h-4.06ZM10.78,15.52c-.12,7.33-1.47,9.47-4.57,11.81l3.81,3.33c4.25-3.81,4.95-8.22,5.02-15.14h-4.26ZM42.21,6.05h8.32c-.29,7.68-4.16,15.46-13.38,19.9l3.11,4.58c4.41-2.46,10.17-6.75,12.54-15.04.67,2.59,2.43,9.5,12.41,15.04l3.27-4.77c-11.62-5.54-13.03-14.62-12.96-24.57h-13.31v4.86h0ZM74.24,3.01v12.77h5.28V7.77h14.11c-.06,6.69-.99,15.49-16.09,16.48l2.04,4.77c13.73-1.79,19.55-9.12,19.55-21.22V3.01h-24.89ZM108.4,12.71v5.28h21.92v-5.28h-21.92ZM162.08,15.59c-4.69-2.72-9.67-4.91-14.85-6.53V1.66h-5.5v27.33h5.5v-14.59c4.29,1.67,8.36,3.86,12.13,6.5l2.72-5.31ZM152.25,3.97c1.35,1.92,2.45,4.01,3.27,6.21l2.88-1.54c-.88-2.16-2.02-4.2-3.39-6.08l-2.76,1.41ZM156.73,1.8c1.4,1.89,2.53,3.97,3.36,6.18l2.92-1.47c-.94-2.13-2.12-4.15-3.52-6.01l-2.76,1.31ZM181.76,14.4c.54-.48.67-.64.86-.83v16.47h18.24v-4.42h-4.93v-2.85h4.13v-4h-4.13v-2.78h4.13v-3.97h-4.13v-2.75h4.74v-4.29h-4.61c.55-1.15,1.38-3.2,1.76-4.29l-4.8-.61c-.45,1.67-1.01,3.3-1.66,4.9h-3.33c.61-1.4,1.13-2.85,1.54-4.32l-4.64-.67c-.67,2.96-1.97,5.74-3.81,8.16v-2.91h-2.5V.13h-4.54v5.12h-3.39v4.48h3.39v5.54c-1.7.38-2.3.54-3.52.77l.48,4.83c1.03-.2,2.04-.46,3.04-.77v4.48c0,.83-.16.93-.86.93h-2.4l.7,4.93h4.35c2.75,0,2.75-2.02,2.75-3.23v-8.51c1.28-.45,1.73-.61,2.76-1.02l-.23-4.29.61,1.03ZM191.61,18.79h-4.32v-2.79h4.32v2.78h0ZM191.61,12.04h-4.32v-2.76h4.32v2.75h0ZM191.61,25.64h-4.32v-2.85h4.32v2.85h0ZM181.06,13.22c-.13.06-1.6.51-2.44.77v-4.26h1.16c-.1.1-.2.19-.52.48l1.8,3.01ZM219.36,30.69c7.45-1.57,14.81-4.67,18.56-11.23v-4.23h-6.21c.48-.58.8-1.02,1.25-1.66l-3.46-.8c.74-.42,5.09-3.04,7.2-7.17V1.89h-7.42c.35-.54.51-.8.89-1.44l-4.96-.38c-1.81,2.42-4.29,4.27-7.13,5.31l2.94,3.74c.74-.38.9-.51,1.6-.93.83.74,1.12,1.02,2.21,2.14-1.7.72-3.49,1.25-5.31,1.57v-3.72h-3.01v-3.04c1.09-.12,2.18-.35,3.23-.67l-1.18-4.22c-3.57.75-7.21,1.1-10.85,1.02l.71,4.45c.22-.03,3.26-.13,3.71-.16v2.62h-4.42v4.45h3.87c-1.04,2.57-2.54,4.92-4.44,6.94l1.47,6.34c1.41-1.96,2.6-4.07,3.52-6.3v10.91h4.38v-11.1c.44.88.94,1.73,1.47,2.56l.52-1.28,1.88,2.53c1.11-.41,2.18-.89,3.23-1.44.45.45,1.96,2.02,2.34,2.43-2.79,1.15-5.73,1.9-8.73,2.24l2.14,4.22ZM232.77,19.23c-.87,1.08-1.87,2.05-2.98,2.88-1.18-1.15-2.5-2.21-2.82-2.46.39-.32.45-.35.52-.42h5.28,0ZM220.64,16.35c2.4-.52,4.72-1.35,6.91-2.46-2.51,2.3-5.4,4.15-8.54,5.47l.96-2.46c-1.33-1.12-2.49-2.43-3.46-3.87v-.39h2.21l1.92,3.71ZM231.55,5.6c-.78,1-1.69,1.88-2.72,2.62-.97-.88-2-1.69-3.07-2.43.08-.05.14-.11.19-.19h5.6ZM263.04,7.97c2.54-.37,5.06-.87,7.55-1.5l-2.53-4.61c-3.74,1.18-9.57,2.62-20.89,2.62l.96,4.58c3.28.03,6.56-.12,9.82-.45v3.01h-11.87v4.64h11.81c-.36,4.03-2.12,6.85-11.11,8.29l2.12,4.54c9.43-1.95,13.27-5.38,14.04-12.83h9.76v-4.64h-9.66v-3.65h0ZM293.09,12.99h7.71v-4.44h-20.13v4.44h7.71v10.3h-8.73v4.48h22.3v-4.48h-8.86v-10.3ZM317.34,17.18c-.6-2.82-1.54-5.55-2.81-8.13l-4.03,1.09c1.18,2.57,2.03,5.28,2.52,8.06l4.32-1.02ZM324.32,15.71c-.43-2.72-1.23-5.37-2.37-7.87l-4.03.8c1.03,2.58,1.79,5.26,2.24,8l4.16-.93ZM315.9,29.41c13.83-3.39,16.23-13.15,17.86-20.29l-4.96-1.18c-2.05,11.04-5.22,15.17-16.16,17.63l3.26,3.84ZM345.47,29.38c9.15-1.76,21.25-7.14,22.5-26.49h-18.4c-1.63,3.73-4.38,6.86-7.87,8.96l3.26,3.74c3.22-2.03,5.93-4.77,7.93-8h9.19c-2.08,12.8-12.61,16.1-18.69,17.09l2.08,4.7Z"/></svg>