<?xml version="1.0" encoding="UTF-8"?><svg id="icon_folder" xmlns="http://www.w3.org/2000/svg" width="21.5" height="16" viewBox="0 0 21.5 16"><defs><style>.cls-1{fill:#f94c1c;}.cls-1,.cls-2{stroke-width:0px;}.cls-2{fill:#fff;}</style></defs><path class="cls-2" d="M16,3.49h-6.95s-.06-.02-.06-.05v-1.5c0-.53-.45-.97-1-.97H2c-.55,0-1,.43-1,.97v12.13c0,.22.09.42.22.58.03.03.04.07.07.1.03.03.07.04.1.07.17.13.37.22.6.22h14.01c.55,0,1-.43,1-.97V4.46c0-.53-.45-.97-1-.97Z"/><path class="cls-1" d="M16,16H2c-.43,0-.85-.14-1.21-.42.03.02-.09-.04-.2-.15l-.2-.26c-.23-.28-.38-.69-.38-1.11V1.94C0,.87.9,0,2,0h6.01c1.1,0,2,.87,2,1.94v.59h6c1.1,0,2,.87,2,1.94v9.61c0,1.07-.9,1.94-2,1.94ZM2,14.06l.04.06.07.09s-.05-.08-.12-.14ZM2,14.04s0,0,.01.01h13.99s0-9.59,0-9.59h-7.94l-.06-1.02v-1.5H2s0,12.11,0,12.11Z"/><path class="cls-2" d="M15.64,15.01H2.12c-.55,0-.78-.45-.51-1l3.27-6.02c.27-.55.93-1,1.48-1h13.53c.55,0,.78.45.51,1l-3.27,6.02c-.27.55-.93,1-1.48,1Z"/><path class="cls-1" d="M15.64,16H2.12c-.59,0-1.1-.26-1.38-.72-.3-.48-.31-1.1-.02-1.7l3.29-6.06c.42-.86,1.42-1.52,2.36-1.52h13.53c.59,0,1.1.26,1.38.72.3.48.31,1.1.02,1.7l-3.29,6.06c-.42.86-1.42,1.51-2.36,1.51ZM2.73,14.02h12.91c.14,0,.47-.2.59-.44l3.03-5.59H6.36c-.14,0-.47.2-.59.44l-3.03,5.59Z"/></svg>